<?xml version="1.0" encoding="UTF-8"?>
<svg id="body_1" data-name="body 1" xmlns="http://www.w3.org/2000/svg" viewBox="0 0 16.02 24">
  <defs>
    <style>
      .cls-1 {
        stroke: #fff;
        stroke-width: .06px;
      }

      .cls-1, .cls-2 {
        fill: #fff;
        stroke-miterlimit: 1.01;
      }

      .cls-2 {
        stroke: #000;
        stroke-width: 1.26px;
      }

      .cls-3 {
        stroke-width: 0px;
      }
    </style>
  </defs>
  <path class="cls-2" d="M11.97,15.45c.16.12.66.44,1.34.4.87-.04,1.4-.64,1.52-.78.88-1.01.48-2.39.45-2.49-.22-.59-.61-1.36-1.36-1.98-.48-.41-1.14-.97-1.81-.76-.53.17-.78.74-.86.94h0l.73,4.66h0Z"/>
  <path class="cls-2" d="M8.44,17.75c.17.14.74.6,1.52.56.94-.05,1.51-.8,1.73-1.09.94-1.24.64-2.81.51-3.49-.13-.66-.39-2.04-1.54-2.78-.2-.13-.69-.43-1.37-.42-.89.01-1.5.53-1.67.69h0l.82,6.52h0Z"/>
  <path class="cls-2" d="M3.4,1.78c-.4.44-.62.95-.62.95-.13.32-.19.62-.22.84h0l.17.72c-1.73,2.88-2.13,3.93-1.92,4.09.13.1.52-.17.71,0,.16.15.05.52,0,.71,0,1.1.58,1.93.7,2.12.94,1.44,1.36,6.02,1.39,6.36.3,3.3-.31,5.1.68,5.65.49.27,1.1.09,1.41,0,1.18-.33,1.77-1.44,2.13-2.11.77-1.46.75-2.84.72-4.23-.02-1.02-.15-2.5-.69-4.24-.07-.98.54-1.86,1.42-2.11.76-.22,1.6.06,2.11.71-.06-.58.22-1.13.71-1.41.68-.39,1.38-.02,1.41,0,.02-.35.04-.83,0-1.41-.03-.52-.05-1.05-.2-1.67-.11-.46-.33-1.13-.79-1.89.11-.2.28-.61.26-1.13-.04-.77-.51-1.28-.78-1.57-1.24-1.34-3.26-1.47-4.11-1.53-2.11-.14-3.88.45-4.5,1.13h0Z"/>
  <path class="cls-2" d="M2.62,6.06c.45,0,.67.35,1.17.79,2.29,2.04,4.79,1.18,5.65,2.99.09.18.25.54.19.98-.18,1.24-2.04,1.94-3.15,2.12-1.96.32-3.45-.64-3.71-.82-.49-.33-2.11-1.41-2.12-3.15-.01-1.42,1.05-2.93,1.99-2.92h0Z"/>
  <path class="cls-1" d="M4.25,5.98c-.25-.59-.5-1.18-.76-1.76-.25.4-.51.82-.76,1.26-.49.87-.91,1.72-1.26,2.52.84.08,1.68.17,2.52.25-.17-.25-.34-.5-.5-.76-.23-.36-.21-.79,0-1.01.27-.27.91-.25,1.26.25-.17-.25-.34-.5-.5-.76h0Z"/>
  <path class="cls-3" d="M2.8,5.13c.41-.78.85-1.06,1.18-1.17.41-.14,1.11-.19,1.18-.19.52-.03.86.01.99-.19.06-.1.06-.27,0-.39-.05-.1-.13-.16-.2-.2-.42-.25-1.1-.21-1.18-.2-.24.02-.58.06-.99.19-.1.04-.73.29-.99.98-.21.56-.05,1.05,0,1.18h0Z"/>
  <path class="cls-3" d="M12.63,5.37c-.26.19-.87-.98-2.16-1.19-.75-.13-1.34.14-1.57-.2-.12-.17-.11-.43,0-.59.16-.22.5-.21.99-.19.33.01.7.03,1.18.2.44.16,1.05.38,1.39.99.18.33.34.86.17.98h0Z"/>
</svg>