<?xml version="1.0" encoding="UTF-8"?>
<svg id="Layer_1" data-name="Layer 1" xmlns="http://www.w3.org/2000/svg" viewBox="0 0 63.58 95.26">
  <defs>
    <style>
      .cls-1 {
        stroke: #000;
        stroke-width: 5px;
      }

      .cls-1, .cls-2 {
        fill: #fff;
        stroke-miterlimit: 10;
      }

      .cls-2 {
        stroke: #fff;
        stroke-width: .25px;
      }

      .cls-3 {
        stroke-width: 0px;
      }
    </style>
  </defs>
  <path class="cls-1" d="M47.51,61.32c.64.46,2.6,1.73,5.3,1.59,3.47-.17,5.56-2.55,6.02-3.08,3.5-3.99,1.9-9.49,1.78-9.89-.86-2.34-2.44-5.38-5.39-7.87-1.91-1.62-4.53-3.84-7.18-3-2.11.67-3.11,2.94-3.42,3.75l2.89,18.49Z"/>
  <path class="cls-1" d="M33.48,70.45c.67.57,2.93,2.39,6.02,2.22,3.74-.2,5.99-3.17,6.85-4.31,3.73-4.93,2.54-11.15,2.03-13.84-.5-2.62-1.55-8.11-6.12-11.02-.78-.5-2.72-1.69-5.45-1.67-3.54.04-5.94,2.12-6.61,2.74l3.27,25.87Z"/>
  <path class="cls-1" d="M13.5,7.07c-1.6,1.76-2.45,3.79-2.45,3.79-.5,1.27-.75,2.46-.87,3.35l.69,2.87c-6.85,11.45-8.45,15.6-7.63,16.22.53.39,2.05-.69,2.8.01.65.61.19,2.05-.01,2.8h0c-.02,4.38,2.29,7.68,2.77,8.42,3.72,5.72,5.38,23.91,5.51,25.24,1.2,13.11-1.24,20.24,2.71,22.43,1.93,1.07,4.35.37,5.6.02,4.69-1.3,7.03-5.72,8.44-8.37,3.07-5.8,2.97-11.27,2.87-16.8-.08-4.06-.6-9.93-2.74-16.82-.28-3.88,2.14-7.38,5.64-8.38,3.01-.86,6.35.25,8.39,2.83-.23-2.29.88-4.49,2.82-5.59,2.7-1.53,5.46-.06,5.6.02.08-1.39.14-3.31.02-5.6-.11-2.06-.21-4.15-.81-6.61-.44-1.81-1.3-4.48-3.13-7.49.42-.8,1.12-2.41,1.02-4.48-.15-3.04-2.01-5.09-3.08-6.25-4.91-5.31-12.94-5.85-16.3-6.08-8.39-.57-15.4,1.78-17.87,4.48Z"/>
  <path class="cls-1" d="M10.38,24.07c1.77.01,2.64,1.37,4.63,3.15,9.09,8.11,19.02,4.69,22.43,11.86.34.72,1,2.15.74,3.89-.73,4.92-8.1,7.7-12.51,8.43-7.76,1.28-13.7-2.55-14.74-3.25-1.94-1.3-8.37-5.6-8.43-12.51-.05-5.64,4.15-11.61,7.88-11.58Z"/>
  <path class="cls-2" d="M16.86,23.76c-1-2.33-2-4.67-3-7-1,1.58-2.01,3.24-3,5-1.96,3.47-3.61,6.83-5,10,3.33.33,6.67.67,10,1-.67-1-1.33-2-2-3-.93-1.43-.84-3.15,0-4,1.08-1.09,3.6-.98,5,1-.67-1-1.33-2-2-3Z"/>
  <path class="cls-3" d="M11.12,20.38c1.61-3.08,3.38-4.21,4.7-4.66,1.64-.57,4.41-.75,4.69-.76,2.05-.12,3.43.05,3.91-.77.24-.41.25-1.07,0-1.56-.19-.39-.5-.62-.78-.78-1.68-.99-4.37-.82-4.68-.8-.95.07-2.31.25-3.91.77-.4.15-2.88,1.15-3.92,3.89-.84,2.22-.21,4.16-.02,4.68Z"/>
  <path class="cls-3" d="M50.14,21.31c-1.05.76-3.47-3.87-8.57-4.72-2.99-.5-5.3.57-6.24-.8-.47-.68-.43-1.72,0-2.34.62-.88,1.98-.84,3.91-.77,1.32.05,2.79.12,4.68.8,1.73.63,4.17,1.51,5.53,3.92.73,1.3,1.36,3.42.69,3.9Z"/>
</svg>