<?xml version="1.0" encoding="UTF-8"?>
<svg id="Layer_1" data-name="Layer 1" xmlns="http://www.w3.org/2000/svg" viewBox="0 0 95.26 63.58">
  <defs>
    <style>
      .cls-1 {
        stroke: #000;
        stroke-width: 5px;
      }

      .cls-1, .cls-2 {
        fill: #fff;
        stroke-miterlimit: 10;
      }

      .cls-2 {
        stroke: #fff;
        stroke-width: .25px;
      }

      .cls-3 {
        stroke-width: 0px;
      }
    </style>
  </defs>
  <path class="cls-1" d="M61.32,47.51c.46.64,1.73,2.6,1.59,5.3-.17,3.47-2.55,5.56-3.08,6.02-3.99,3.5-9.49,1.9-9.89,1.78-2.34-.86-5.38-2.44-7.87-5.39-1.62-1.91-3.84-4.53-3-7.18.67-2.11,2.94-3.11,3.75-3.42l18.49,2.89Z"/>
  <path class="cls-1" d="M70.45,33.48c.57.67,2.39,2.93,2.22,6.02-.2,3.74-3.17,5.99-4.31,6.85-4.93,3.73-11.15,2.54-13.84,2.03-2.62-.5-8.11-1.55-11.02-6.12-.5-.78-1.69-2.72-1.67-5.45.04-3.54,2.12-5.94,2.74-6.61l25.87,3.27Z"/>
  <path class="cls-1" d="M7.07,13.5c1.76-1.6,3.79-2.45,3.79-2.45,1.27-.5,2.46-.75,3.35-.87l2.87.69c11.45-6.85,15.6-8.45,16.22-7.63.39.53-.69,2.05.01,2.8.61.65,2.05.19,2.8-.01h0c4.38-.02,7.68,2.29,8.42,2.77,5.72,3.72,23.91,5.38,25.24,5.51,13.11,1.2,20.24-1.24,22.43,2.71,1.07,1.93.37,4.35.02,5.6-1.3,4.69-5.72,7.03-8.37,8.44-5.8,3.07-11.27,2.97-16.8,2.87-4.06-.08-9.93-.6-16.82-2.74-3.88-.28-7.38,2.14-8.38,5.64-.86,3.01.25,6.35,2.83,8.39-2.29-.23-4.49.88-5.59,2.82-1.53,2.7-.06,5.46.02,5.6-1.39.08-3.31.14-5.6.02-2.06-.11-4.15-.21-6.61-.81-1.81-.44-4.48-1.3-7.49-3.13-.8.42-2.41,1.12-4.48,1.02-3.04-.15-5.09-2.01-6.25-3.08-5.31-4.91-5.85-12.94-6.08-16.3-.57-8.39,1.78-15.4,4.48-17.87Z"/>
  <path class="cls-1" d="M24.07,10.38c.01,1.77,1.37,2.64,3.15,4.63,8.11,9.09,4.69,19.02,11.86,22.43.72.34,2.15,1,3.89.74,4.92-.73,7.7-8.1,8.43-12.51,1.28-7.76-2.55-13.7-3.25-14.74-1.3-1.94-5.6-8.37-12.51-8.43-5.64-.05-11.61,4.15-11.58,7.88Z"/>
  <path class="cls-2" d="M23.76,16.86c-2.33-1-4.67-2-7-3,1.58-1,3.24-2.01,5-3,3.47-1.96,6.83-3.61,10-5,.33,3.33.67,6.67,1,10-1-.67-2-1.33-3-2-1.43-.93-3.15-.84-4,0-1.09,1.08-.98,3.6,1,5-1-.67-2-1.33-3-2Z"/>
  <path class="cls-3" d="M20.38,11.12c-3.08,1.61-4.21,3.38-4.66,4.7-.57,1.64-.75,4.41-.76,4.69-.12,2.05.05,3.43-.77,3.91-.41.24-1.07.25-1.56,0-.39-.19-.62-.5-.78-.78-.99-1.68-.82-4.37-.8-4.68.07-.95.25-2.31.77-3.91.15-.4,1.15-2.88,3.89-3.92,2.22-.84,4.16-.21,4.68-.02Z"/>
  <path class="cls-3" d="M21.31,50.14c.76-1.05-3.87-3.47-4.72-8.57-.5-2.99.57-5.3-.8-6.24-.68-.47-1.72-.43-2.34,0-.88.62-.84,1.98-.77,3.91.05,1.32.12,2.79.8,4.68.63,1.73,1.51,4.17,3.92,5.53,1.3.73,3.42,1.36,3.9.69Z"/>
</svg>