{"accessors" : [{"bufferView" : 0, "byteOffset" : 0, "componentType" : 5125, "count" : 891015, "type" : "SCALAR", "max" : [728614], "min" : [0]}, {"bufferView" : 1, "byteOffset" : 0, "componentType" : 5126, "count" : 728615, "type" : "VEC3", "max" : [33.97101593017578, 25.606386184692383, 18.384475708007812], "min" : [-33.68299865722656, -47.54065704345703, -18.52241325378418], "name" : "POSITION"}], "asset" : {"generator" : "Aspose.3D 23.12.0", "version" : "2.0"}, "buffers" : [{"uri" : "buffer.bin", "byteLength" : 14256248}], "bufferViews" : [{"buffer" : 0, "byteOffset" : 0, "byteLength" : 3564060, "target" : 34963}, {"buffer" : 0, "byteOffset" : 3564064, "byteLength" : 10692180, "byteStride" : 12, "target" : 34962}], "meshes" : [{"primitives" : [{"attributes" : {"POSITION" : 1}, "indices" : 0, "mode" : 4}], "name" : ""}], "nodes" : [{"mesh" : 0, "name" : "Group51133"}], "scene" : 0, "scenes" : [{"nodes" : [0]}]}