<?xml version="1.0" encoding="UTF-8"?>
<svg id="Layer_2" data-name="Layer 2" xmlns="http://www.w3.org/2000/svg" viewBox="0 0 22.43 21.67">
  <defs>
    <style>
      .cls-1 {
        fill: #231f20;
        stroke-width: 0px;
      }
    </style>
  </defs>
  <g id="Layer_4" data-name="Layer 4">
    <path class="cls-1" d="m22.05.28c-.16-.03-.29-.06-.41-.09-.22-.05-.39-.09-.58-.1l-1.3-.03c-1.55-.04-3.16-.09-4.74-.04-.57.02-1.21.55-1.53,1.05l-.13.21c-1.05,1.64-2.13,3.34-3.02,5.11-.81,1.61-2,2.25-3.97,2.09-1.64-.12-2.97-.17-4.18-.13-.79.02-1.38.26-1.75.7-.36.42-.49.99-.4,1.69.23,1.76.5,3.48.79,5.3.12.75.24,1.51.36,2.27l.06.36,9.19-1.1.47,4.11,9.85-2.73.03-1.09-9.23-2.3c0-.2,0-.42,0-.64-.01-.83-.02-1.77.02-2.71.03-.63.12-.73.14-.74.03-.01.16-.04.74.21,1.56.67,2.96.77,4.17.3,1.19-.47,2.13-1.48,2.79-3,.77-1.79,1.46-3.64,2.13-5.42l.32-.86c.16-.41.25-.84.34-1.29.04-.21.09-.42.15-.65l.09-.38-.38-.08Zm-10.2,17.09c1.36-.13,2.59.24,3.89.64.51.15,1.02.31,1.55.43l-5.17,1.43-.26-2.5ZM2.52,12.92c.94.16,1.84.31,2.74.47.54.1,1.08.2,1.62.3.62.12,1.24.23,1.88.34q1.46.25,1.56,1.79c0,.09,0,.17,0,.3l-7.92,1-.63-4.33.74.13Z"/>
  </g>
</svg>