<?xml version="1.0" encoding="UTF-8"?>
<svg id="Layer_2" data-name="Layer 2" xmlns="http://www.w3.org/2000/svg" viewBox="0 0 18.47 21.6">
  <defs>
    <style>
      .cls-1 {
        fill: #231f20;
        stroke-width: 0px;
      }
    </style>
  </defs>
  <g id="Layer_4" data-name="Layer 4">
    <path class="cls-1" d="m18.34,5.66h.02s-.13-.71-.13-.71c0,0,0,0,0,0l-.06-.33h0c-.51-2.45-1.63-4.01-3.1-4.29-1.41-.26-2.93.68-4.24,2.57-.21.3-.66.24-.78-.1C9.45,1.23,8.52.26,7.38.04c-1.84-.34-3.82,1.32-5.33,4.46h0s-.11.24-.11.24l-.39.84h.03c-.51,1.27-.92,2.68-1.19,4.13-.12.63-.21,1.27-.28,1.9-.54,5.22.82,9.18,3.29,9.65.16.03.31.04.47.04,1.27,0,2.6-.93,3.77-2.62.2-.3.65-.23.78.1.6,1.56,1.52,2.54,2.66,2.75.15.03.31.04.46.04,2.61,0,5.39-4,6.47-9.48l.05-.25c.41-2.18.49-4.36.26-6.22Zm-1.62-.28c.11.01.22.03.32.05.09.01.18.03.27.04.04.3.08.61.1.93-.29-.48-.67-.85-1.13-1.07.14.02.29.03.43.05Zm-2.13-4.1c.1,0,.2,0,.29.03.98.18,1.79,1.33,2.23,3.13-.02,0-.05,0-.07,0-.07-.01-.15-.02-.22-.03-.19-.03-.39-.05-.59-.07-.09,0-.18-.02-.27-.02-.19-.02-.39-.03-.58-.04-.08,0-.17-.01-.25-.01-.28-.01-.55-.02-.83-.02-.25,0-.51,0-.76.02-.05,0-.11,0-.16,0-.24.01-.48.03-.72.04-.04,0-.08,0-.12.01-.22.02-.43.04-.65.07-.04,0-.08,0-.12.01-.23.03-.46.07-.69.1-.02,0-.04,0-.07,0,1.12-2.03,2.44-3.22,3.59-3.22Zm-5.76,4.26c.08.02.16.03.24.05.1.02.19.04.29.06.08.02.16.04.23.06.04,0,.07.02.11.03.04.33.06.66.07,1-.23-.5-.56-.92-.96-1.2,0,0,.01,0,.01,0Zm-1.63-4.52c1.07.2,1.94,1.56,2.34,3.65-.09-.02-.18-.04-.26-.06-.05-.01-.11-.02-.16-.03-.36-.07-.74-.14-1.12-.19-.06,0-.12-.01-.18-.02-.13-.02-.27-.03-.4-.05-.07,0-.14-.01-.21-.02-.13-.01-.26-.02-.38-.03-.07,0-.14-.01-.22-.01-.14,0-.27-.01-.41-.02-.06,0-.13,0-.19,0-.2,0-.4,0-.6,0-.23,0-.47,0-.7.01-.06,0-.12,0-.18,0-.2,0-.41.02-.61.04-.03,0-.06,0-.09,0-.19.01-.37.03-.56.05,1.22-2.27,2.72-3.55,3.95-3.32Zm-3.6,19.28h0c-1.89-.35-2.96-4.04-2.49-8.57.06-.6.15-1.22.26-1.82.3-1.6.77-3.15,1.36-4.5.09-.01.17-.02.26-.04.1-.01.19-.03.29-.04.14-.02.28-.03.42-.04.09,0,.18-.02.27-.02.16-.01.32-.02.47-.03.08,0,.15,0,.23-.01.24,0,.48-.01.72-.01.2,0,.4,0,.6,0,.07,0,.13,0,.19,0,.13,0,.26.01.39.02.04,0,.07,0,.11,0-1.11.41-2.05,1.61-2.34,3.15-.11.61-.11,1.2-.02,1.74.08.44.6.65.97.41l.94-.59s-.5.57-1.04,1.19c-.22.25-.22.62,0,.86.35.37.79.63,1.28.72,1.14.21,2.28-.49,2.98-1.69-.02.12-.04.23-.06.35-.02.09-.03.17-.05.25-.36,1.8-.92,3.5-1.62,4.91-1.26,2.54-2.85,3.96-4.15,3.72Zm13.47-8.37c-1.01,5.09-3.66,9.05-5.78,8.65-1.08-.2-1.95-1.59-2.35-3.71.7-1.45,1.26-3.16,1.62-4.95.02-.11.05-.22.07-.33.4-2.13.5-4.22.28-6.06,0,0,0,0,0,0,.24-.05.49-.09.74-.12.04,0,.07-.01.11-.02.24-.03.48-.06.73-.08.05,0,.09,0,.14-.01.25-.02.5-.04.75-.05.04,0,.08,0,.12,0,.27-.01.53-.02.81-.02.11,0,.22,0,.33,0-1.15.37-2.15,1.59-2.45,3.19-.11.61-.11,1.2-.02,1.74.08.44.6.65.97.41l.94-.59s-.5.57-1.04,1.19c-.22.25-.22.62,0,.86.35.37.79.63,1.28.72,1.07.2,2.15-.41,2.86-1.48-.02.14-.04.28-.07.42l-.05.24Z"/>
  </g>
</svg>