<?xml version="1.0" encoding="UTF-8"?>
<svg id="Layer_2" data-name="Layer 2" xmlns="http://www.w3.org/2000/svg" viewBox="0 0 21.99 20.9">
  <defs>
    <style>
      .cls-1 {
        fill: #231f20;
        stroke-width: 0px;
      }
    </style>
  </defs>
  <g id="Layer_4" data-name="Layer 4">
    <path class="cls-1" d="m21.99,12.96c-1.77,1.13-3.18,1.52-4.54,2.04-.77.29-1.17.7-1.21,1.59-.05,1.17-.33,2.32-.46,3.49-.08.73-.41.81-.97.49-1.02-.58-2.06-1.14-3.04-1.78-.7-.45-1.3-.5-2.01,0-.92.65-1.92,1.18-2.87,1.78-.68.42-1.11.56-1.2-.53-.1-1.26-.41-2.51-.54-3.77-.06-.6-.39-.84-.88-1.02-1.15-.42-2.28-.88-3.45-1.26-.9-.29-1.12-.63-.34-1.35.79-.73,1.47-1.58,2.26-2.31.67-.62.79-1.27.47-2.1-.4-1.05-.68-2.15-1.09-3.2-.34-.87,0-1.05.78-.98,1.12.1,2.25.12,3.37.26.89.11,1.46-.14,1.91-.96.53-.99,1.23-1.88,1.82-2.84.46-.75.8-.67,1.23.04.45.75,1.1,1.41,1.45,2.2.64,1.45,1.69,1.62,3.1,1.44,3.65-.48,3.74-.4,2.56,2.98-.52,1.5-.45,2.6.84,3.57.9.67,1.78,1.39,2.82,2.21Z"/>
  </g>
</svg>