<?xml version="1.0" encoding="UTF-8"?>
<svg id="Layer_2" data-name="Layer 2" xmlns="http://www.w3.org/2000/svg" viewBox="0 0 21.48 21.57">
  <defs>
    <style>
      .cls-1 {
        fill: #231f20;
        stroke-width: 0px;
      }
    </style>
  </defs>
  <g id="Layer_4" data-name="Layer 4">
    <path class="cls-1" d="m14.32,12.25c1.52,1.53,2.55,2.63,3.65,3.65.88.82,1.56,1.35.27,2.61-1.34,1.31-1.74.15-2.4-.48-1.11-1.07-2.18-2.19-3.65-3.68,0,2.35-.06,4.13.02,5.9.06,1.22-.59,1.3-1.53,1.32-.97.02-1.56-.09-1.5-1.31.1-1.77.02-3.55.02-5.32-.21-.14-.42-.27-.62-.41-1.02,1.18-2.01,2.37-3.05,3.52-.67.74-1.14,1.68-2.43.42-1.37-1.33-.37-1.86.39-2.62,1.06-1.06,2.14-2.09,3.41-3.34-2.05-.49-3.83-.27-5.57-.24C.11,12.29.01,11.75,0,10.79c0-.97.09-1.56,1.3-1.5,1.73.09,3.46.02,5.43.02-.95-1.72-2.39-2.79-3.65-3.98-.9-.86-.83-1.34,0-2.15.8-.79,1.31-1,2.14-.04,1.12,1.29,2.38,2.46,3.98,4.08,0-2.21.04-3.9-.02-5.59C9.15.57,9.3,0,10.62,0c1.37,0,1.65.5,1.58,1.73-.1,1.62-.02,3.26.45,5.17,1.05-1.12,2.1-2.25,3.15-3.37.74-.78,1.25-1.72,2.57-.37,1.23,1.27.39,1.73-.37,2.43-1.16,1.06-2.34,2.1-3.51,3.15l.27.58c1.76,0,3.52.05,5.28-.02,1.02-.04,1.49.2,1.44,1.35-.05,1.03-.08,1.72-1.43,1.63-1.76-.12-3.53-.03-5.73-.03Z"/>
  </g>
</svg>