<?xml version="1.0" encoding="UTF-8"?>
<svg id="Layer_2" data-name="Layer 2" xmlns="http://www.w3.org/2000/svg" viewBox="0 0 21.6 24.96">
  <defs>
    <style>
      .cls-1 {
        stroke-width: 0px;
      }
    </style>
  </defs>
  <g id="Layer_4" data-name="Layer 4">
    <path class="cls-1" d="m20.97,11.29c-1.28-2.28-3.56-2.33-5.56-2.37-.75-.02-1.48-.03-2.13-.15.21-.85.25-1.83.08-2.9-.39-2.44-1.88-5.31-3.88-5.8-.57-.14-1.67-.19-2.64,1.1-1.17,1.56-.9,3.57-.67,5.34.14,1.07.28,2.07.02,2.61-.18.38-.46.74-.79,1.15-.21.27-.43.55-.65.85-1.39-.52-2.67-.18-3.56,1-1.71,2.27-1.57,7.22.26,9.31.62.71,1.4,1.06,2.25,1.06.51,0,1.05-.13,1.59-.39,1.06.84,2.6,1.18,4.02,1.18.53,0,1.04-.06,1.52-.14.99,1.21,2.85,1.82,4.64,1.82,1.04,0,2.05-.2,2.85-.6,1.53-.77,2.11-2.12,1.64-3.7,0,0,0,0,0,0,.71-.49,2.12-1.89.67-4.6.3-.32.54-.71.7-1.17.43-1.21.27-2.64-.39-3.6Zm-1.8,8.2c-1.65,1.15-5.64.71-6.77-.74-.5-.64-.25-1.44.72-2.38.87.65,2.02,1.12,3.4,1.12.88,0,1.85-.19,2.89-.65.02,0,.03-.01.04-.02.92,1.82.03,2.44-.29,2.66Zm-8.79,2.29c-1.47.21-3.3,0-4.29-.87-.55-.48-.79-1.11-.73-1.93.03-.39-.26-.73-.65-.77-.4-.03-.73.26-.77.65-.06.77.07,1.48.39,2.09-.94.31-1.48-.1-1.81-.47-1.41-1.61-1.52-5.75-.19-7.51.46-.61,1.02-.81,1.73-.6-.39.97-.58,2.21-.28,3.94.06.35.36.59.7.59.04,0,.08,0,.12-.01.39-.07.65-.44.58-.82-.47-2.67.45-3.81,1.33-4.92.35-.44.72-.9.97-1.43.43-.92.27-2.13.1-3.41-.21-1.57-.43-3.2.39-4.29.49-.66.9-.64,1.16-.58,1.15.29,2.47,2.46,2.82,4.65.15.91.31,3.13-1.26,4.12-.33.21-.43.65-.22.98.21.33.65.43.98.22.53-.33.95-.79,1.28-1.32.86.2,1.76.23,2.65.25,1.86.04,3.46.07,4.38,1.7.43.64.53,1.59.25,2.37-.14.4-.44.91-1.05,1.09-.03,0-.06.02-.09.03-2.6,1.16-4.57.29-5.56-.91-.62-.75-.81-1.64-.47-2.12.37-.52,1.58-.76,3.88.11.37.14.78-.05.92-.42.14-.37-.05-.78-.42-.92-3.6-1.35-5.01-.33-5.54.39-.7.98-.53,2.45.42,3.7-1.84,1.8-1.46,3.23-1.02,3.97-.62.64-.67,1.52-.7,2.15,0,.1,0,.2-.02.29Zm7.33,1.3c-1.72.86-5,.48-5.92-1.07.01-.15.02-.31.03-.46.03-.62.07-.98.27-1.2,1.12.79,2.78,1.22,4.39,1.22.78,0,1.53-.11,2.2-.32.18.81-.13,1.41-.97,1.83Z"/>
  </g>
</svg>